<?xml version="1.0" standalone="yes"?>
<svg width="502" height="497">
<path style="fill:#000000; stroke:none;" d="M0 0L0 497L502 497L502 0L0 0z"/>
<path style="fill:#53e5de; stroke:none;" d="M445 74L445 75L451 75L445 74z"/>
<path style="fill:#6af3df; stroke:none;" d="M443.667 75.3333L444.333 75.6667L443.667 75.3333z"/>
<path style="fill:#14c6d7; stroke:none;" d="M446 90L452 75C442.206 75.0822 433.751 84.9922 446 90z"/>
<path style="fill:#f8fdfe; stroke:none;" d="M452 75L453 76L452 75z"/>
<path style="fill:#23aae3; stroke:none;" d="M452 76L446 90C454.24 89.7325 457.952 82.3524 452 76z"/>
<path style="fill:#d2f2f8; stroke:none;" d="M453 76L454 77L453 76z"/>
<path style="fill:#a0f9eb; stroke:none;" d="M441 77L442 78L441 77z"/>
<path style="fill:#77d1ec; stroke:none;" d="M454.333 77.6667L454.667 78.3333L454.333 77.6667z"/>
<path style="fill:#86ccf1; stroke:none;" d="M455 80L455 85L456 85L455 80z"/>
<path style="fill:#b4eff2; stroke:none;" d="M441 87L442 88L441 87z"/>
<path style="fill:#e6f2fd; stroke:none;" d="M454 87L455 88L454 87z"/>
<path style="fill:#ddeefc; stroke:none;" d="M453 88L454 89L453 88z"/>
<path style="fill:#8cdbee; stroke:none;" d="M443.667 89.3333L444.333 89.6667L443.667 89.3333z"/>
<path style="fill:#bde3f7; stroke:none;" d="M445 90L445 91L451 91L445 90z"/>
<path style="fill:#feeef2; stroke:none;" d="M203 91L203 92L228 92L203 91z"/>
<path style="fill:#5af5dc; stroke:none;" d="M83 92L83 93L120 93C110.202 88.8887 93.6488 92 83 92z"/>
<path style="fill:#fafffe; stroke:none;" d="M120.667 92.3333L121.333 92.6667L120.667 92.3333z"/>
<path style="fill:#f40a72; stroke:none;" d="M203 92C203 96.6657 201.293 105.528 204.028 109.501C206.558 113.176 214.119 115.296 218 117.359C226.764 122.017 235.51 127.775 243 134.289C262.896 151.594 276.879 174.467 283.42 200C292.26 234.509 288.895 273.713 276.911 307C273.032 317.775 263.573 328.156 260.947 338.961C259.455 345.099 261 353.63 261 360L261 406L307 406L307 405L305 404L305 403L308 389L305 388L308 372L305 371L308 355L305 354L308 338L305 337L308 321L305 320L308 304L305 303L308 287L305 286L308 270L305 269L308 253L305 252L308 236L305 235L308 219L305 218C309.914 209.828 307.667 197.448 307.667 188.17C307.667 165.901 305.273 142.092 308 120L305 119L308 103L305 102L307 99L304 98L305 93L203 92z"/>
<path style="fill:#f4427b; stroke:none;" d="M240 92L240 93L259 93L240 92z"/>
<path style="fill:#fba6cd; stroke:none;" d="M259 92L259 93L300 93C289.25 88.4892 270.696 92 259 92z"/>
<path style="fill:#fff0f9; stroke:none;" d="M300 92L300 93L328 93L300 92z"/>
<path style="fill:#85ece8; stroke:none;" d="M73 93L73 334L73 390C73 394.577 70.7001 406.864 76 408L76 407C71.8835 401.566 74 390.626 74 384L74 324L74 94L78 94L73 93z"/>
<path style="fill:#06e3cd; stroke:none;" d="M74 94L74 273L78 270L81 258L83 252L89 242L87 242L87 234C90.2068 232.278 91.7025 230.443 90 227L95 226L94 222L97 212C104.609 210.378 115.591 185.17 113 178C117.415 178 119.781 167.356 118 167L118 166C122.807 164.352 124.053 158.362 126 154L124 154L133 138L136 132L139 112C140.798 111.159 143.108 110.431 141 109C143.765 106.308 149.897 98.7781 144.562 95.5139C140.023 92.7363 133.037 94.3096 128 93.8302C110.458 92.1609 91.5009 91.7882 74 94z"/>
<path style="fill:#55f1db; stroke:none;" d="M125 93L125 94L132 94L125 93z"/>
<path style="fill:#bef9f2; stroke:none;" d="M132 93L132 94L138 94L132 93z"/>
<path style="fill:#f70886; stroke:none;" d="M305 93L304 98L307 99L305 102L308 103L305 119L308 120C302.514 141.211 307.306 169.413 307.248 191.374C307.224 200.292 308.588 209.743 305 218L308 219L305 235L308 236L305 252L308 253L305 269L308 270L305 286L308 287L305 303L308 304L305 320L308 321L305 337L308 338L305 354L308 355L305 371L308 372L305 388L308 389L305 405L330 406L331 402L329 402L331 399L331 396L329 393L331 393L329 391L329 390L331 388L329 388L331 385L329 385L331 382L331 379L329 376L331 376L329 374L329 373L331 371L329 371L331 368L329 368L331 365L331 362L329 359L331 359L329 357L329 356L331 354L329 354L331 351L329 351L331 348L331 345L329 342L331 342L329 340L329 339L331 337L329 337L331 334L329 334L331 331L331 328L329 325L331 325L329 323L329 322L331 320L329 320L331 317L329 317L331 314L331 311L329 308L331 308L329 306L329 305L331 303L329 303L331 300L329 300L331 297L331 294L329 291L331 291L329 289L329 288L331 286L329 286L331 283L331 280L329 277L331 277L329 274L331 274L329 272L329 271L331 269L329 269C333.669 259.01 319.359 254.28 319.571 245.424C319.703 239.931 323.69 234.456 323.745 228.13C324.003 198.805 323.823 169.453 323.752 140.127C323.715 124.704 322.111 108.303 324 93L305 93z"/>
<path style="fill:#fa05a7; stroke:none;" d="M323 94L323.255 165.87L323 237L342.035 213L376.945 165L382 151L382 150L380 147L383 147L381 144L381 143L381 140L384 139L384 135L380 130L383 130L381 127L381 126L381 123L384 122L382 117L382 116L380 113L383 113L381 110L381 109L381 106L384 105L382 100L382 99L380 94L342 93.9854L323 94z"/>
<path style="fill:#fb35ba; stroke:none;" d="M336 93L336 94L375 94C364.726 89.6889 347.172 93 336 93z"/>
<path style="fill:#ff75e5; stroke:none;" d="M375 93L375 94L429 94L411 93L375 93z"/>
<path style="fill:#b0f7ef; stroke:none;" d="M141 94L141 95L144 95L141 94z"/>
<path style="fill:#fd03bc; stroke:none;" d="M380 94L382 99L382 100L380 101L380 102L384 105L381 106L381 109L381 110L383 113L380 113L382 116L382 117L380 118L380 119L384 122L381 123L381 126L381 127L383 130L380 130L384 135L384 139L381 140L381 143L381 144L383 147L380 147L382 150L382 151L380 159L400.035 133L428 94L380 94z"/>
<path style="fill:#84f0e7; stroke:none;" d="M146 95L146 96L154 96L146 95z"/>
<path style="fill:#ffdffa; stroke:none;" d="M427 95L428 96L427 95z"/>
<path style="fill:#0dd5d2; stroke:none;" d="M146 96L141 109L139 112L136 132C133.087 133.529 132.422 134.774 133 138L124 154L126 154L118 166L118 167L120 168L113 178C114.585 187.222 104.785 207.171 97 212L94 222L95 226L90 227C92.0392 230.263 90.11 232.151 87 234L87 242L89 242L83 252L81 258C80.0778 262.945 74.4828 264.764 78 270C71.4713 275.526 74 287.177 74 295L74 364L78 364L76 361L77 356L88 345L96 327C94.5476 323.62 98.2765 320.612 101 319C100.124 315.556 100.121 314.191 103 312L105 296C109.199 294.54 110.602 289.992 112.055 286C115.409 276.784 127 263.537 125 254L129 253L134 239L132 239L136 236L144 215L142 215L146 212L148 200L149 194C151.638 191.496 156.562 187.313 153 184L153 183L157 182C158.051 173.638 163.227 161.21 170 156L171 151L170 149C173.821 146.458 172.921 143.405 174.063 139.424C175.784 133.43 181.967 117.998 187 115L188 104L146 96z"/>
<path style="fill:#a3f3ed; stroke:none;" d="M155 96L155 97L158 97L155 96z"/>
<path style="fill:#b0f4f0; stroke:none;" d="M159 97L159 98L162 98L159 97z"/>
<path style="fill:#ffeafc; stroke:none;" d="M425.333 97.6667L425.667 98.3333L425.333 97.6667z"/>
<path style="fill:#70e9e4; stroke:none;" d="M163 98L163 99L166 99L163 98z"/>
<path style="fill:#e9fcfb; stroke:none;" d="M166.667 98.3333L167.333 98.6667L166.667 98.3333z"/>
<path style="fill:#bff5f3; stroke:none;" d="M169.667 99.3333L170.333 99.6667L169.667 99.3333z"/>
<path style="fill:#6ee6e4; stroke:none;" d="M172 100L172 101L175 101L172 100z"/>
<path style="fill:#e6fbfa; stroke:none;" d="M175.667 100.333L176.333 100.667L175.667 100.333z"/>
<path style="fill:#ff9cee; stroke:none;" d="M423 100L424 101L423 100z"/>
<path style="fill:#e8fbfb; stroke:none;" d="M178.667 101.333L179.333 101.667L178.667 101.333z"/>
<path style="fill:#adf0f0; stroke:none;" d="M180 102L180 103L183 103L180 102z"/>
<path style="fill:#fff3fd; stroke:none;" d="M422 102L423 103L422 102z"/>
<path style="fill:#8be9eb; stroke:none;" d="M183.667 103.333L184.333 103.667L183.667 103.333z"/>
<path style="fill:#ecfbfc; stroke:none;" d="M185.667 103.333L186.333 103.667L185.667 103.333z"/>
<path style="fill:#d6f7f8; stroke:none;" d="M188 104L189 105L188 104z"/>
<path style="fill:#1abadc; stroke:none;" d="M188 105L187 115L181.571 124.486L170 149L171 151L170 156C162.903 159.663 157.329 174.37 157 182L153 183L153 184C155.09 187.853 151.349 190.884 149 194L148 200L146 212L142 215L144 215C140.679 221.237 135.334 228.942 136 236L132 239L134 239L129 253L125 254C125.772 263.683 115.967 273.761 112.731 283C111.07 287.742 109.504 293.398 105 296L103 312C99.7369 313.898 99.7849 315.544 101 319C98.0115 320.161 93.5843 323.72 96 327L88 345L77 356L76 361L78 364L74 364L74 395L75.0278 406.258L90 408L124 406.09L139.657 403.683L151 386L156 364L168 352L165 348L165 347C170.38 342.725 172.122 336.49 170 330L182 315L179 314L184 308C183.901 291.71 199.475 282.075 202.722 267.816C205.472 255.743 203 240.391 203 228L203 143C203 135.183 206.391 116.969 201.972 110.43C199.517 106.796 191.999 105.836 188 105z"/>
<path style="fill:#b4eff2; stroke:none;" d="M190 105L190 106L193 106L190 105z"/>
<path style="fill:#ffeffc; stroke:none;" d="M420 105L421 106L420 105z"/>
<path style="fill:#c3f2f5; stroke:none;" d="M194 106L195 107L194 106z"/>
<path style="fill:#b8eff3; stroke:none;" d="M196 107L196 108L199 108L196 107z"/>
<path style="fill:#ffffff; stroke:none;" d="M200 108L200 109L203 110L203 107L200 108z"/>
<path style="fill:#ffc1f3; stroke:none;" d="M418 107L419 108L418 107z"/>
<path style="fill:#fe94ea; stroke:none;" d="M417 108L418 109L417 108z"/>
<path style="fill:#e3d773; stroke:none;" d="M203 110L203 386L204 386L204 191L204 135L203 110z"/>
<path style="fill:#ffb5f0; stroke:none;" d="M416 110L417 111L416 110z"/>
<path style="fill:#ffd155; stroke:none;" d="M204 111L204 385L220 377C216.14 310.089 219.62 241.824 219.79 174.79C219.824 161.385 219.699 147.98 219.785 134.576C219.813 130.371 221.344 121.889 218.922 118.325C216.133 114.221 208.63 111.8 204 111z"/>
<path style="fill:#fe93e9; stroke:none;" d="M414 112L415 113L414 112z"/>
<path style="fill:#ffb7f0; stroke:none;" d="M413 114L414 115L413 114z"/>
<path style="fill:#ffd3f6; stroke:none;" d="M411 117L412 118L411 117z"/>
<path style="fill:#ffc444; stroke:none;" d="M220 118L219.438 168L219.438 266L219.435 335L220 376L234.986 364.91L236.018 349L236.144 318L236.509 255L236.035 177L236.014 144L234.972 128.326L220 118z"/>
<path style="fill:#ffb5ef; stroke:none;" d="M410 118L411 119L410 118z"/>
<path style="fill:#ffc9f3; stroke:none;" d="M409 120L410 121L409 120z"/>
<path style="fill:#fea2ea; stroke:none;" d="M408 121L409 122L408 121z"/>
<path style="fill:#ffb5ef; stroke:none;" d="M407 122L408 123L407 122z"/>
<path style="fill:#ffe3f9; stroke:none;" d="M406 124L407 125L406 124z"/>
<path style="fill:#fff1fc; stroke:none;" d="M405 125L406 126L405 125z"/>
<path style="fill:#ffdef8; stroke:none;" d="M404 127L405 128L404 127z"/>
<path style="fill:#ffdaf7; stroke:none;" d="M403 128L404 129L403 128z"/>
<path style="fill:#ffae28; stroke:none;" d="M236 129L236 364C244.858 359.405 259.94 345.326 261.772 335C263.893 323.046 262 309.144 262 297L262 221C262 200.698 266.392 174.707 261.686 155C259.409 145.464 244.6 132.833 236 129z"/>
<path style="fill:#ffcff4; stroke:none;" d="M402 129L403 130L402 129z"/>
<path style="fill:#ffe1f8; stroke:none;" d="M401.333 130.667L401.667 131.333L401.333 130.667z"/>
<path style="fill:#ffc6f1; stroke:none;" d="M400 132L401 133L400 132z"/>
<path style="fill:#ffebfa; stroke:none;" d="M399.333 133.667L399.667 134.333L399.333 133.667z"/>
<path style="fill:#ffa0e7; stroke:none;" d="M397 136L398 137L397 136z"/>
<path style="fill:#ffe1f8; stroke:none;" d="M395 139L396 140L395 139z"/>
<path style="fill:#fea8e8; stroke:none;" d="M394 140L395 141L394 140z"/>
<path style="fill:#fe9fe5; stroke:none;" d="M392 143L393 144L392 143z"/>
<path style="fill:#ffc2ee; stroke:none;" d="M389 147L390 148L389 147z"/>
<path style="fill:#fff7fd; stroke:none;" d="M388 149L389 150L388 149z"/>
<path style="fill:#feb9eb; stroke:none;" d="M387 150L388 151L387 150z"/>
<path style="fill:#fe95e1; stroke:none;" d="M385 152L386 153L385 152z"/>
<path style="fill:#ffe0f6; stroke:none;" d="M384 154L385 155L384 154z"/>
<path style="fill:#ffa218; stroke:none;" d="M262 155L262 336L263 336C266.783 329.585 271.86 322.325 273.585 315C276.473 302.735 274 287.571 274 275C274 251.681 273.555 228.314 274.014 205C274.358 187.488 276.948 167.686 262 155z"/>
<path style="fill:#ffd5f3; stroke:none;" d="M382 157L383 158L382 157z"/>
<path style="fill:#feb7ea; stroke:none;" d="M381 158L382 159L381 158z"/>
<path style="fill:#ffc9ef; stroke:none;" d="M380.333 159.667L380.667 160.333L380.333 159.667z"/>
<path style="fill:#feaee6; stroke:none;" d="M379 161L380 162L379 161z"/>
<path style="fill:#fec1ec; stroke:none;" d="M378 162L379 163L378 162z"/>
<path style="fill:#fff7fd; stroke:none;" d="M377 164L378 165L377 164z"/>
<path style="fill:#fda9e4; stroke:none;" d="M376 165L377 166L376 165z"/>
<path style="fill:#ffecf9; stroke:none;" d="M375 167L376 168L375 167z"/>
<path style="fill:#fec9ee; stroke:none;" d="M374 168L375 169L374 168z"/>
<path style="fill:#fe90db; stroke:none;" d="M372 170L373 171L372 170z"/>
<path style="fill:#feedf9; stroke:none;" d="M371 172L372 173L371 172z"/>
<path style="fill:#ffebf8; stroke:none;" d="M369 175L370 176L369 175z"/>
<path style="fill:#ff9609; stroke:none;" d="M274 176L274 313L275 313C287.501 280.547 290.737 245.255 285.424 211C283.744 200.167 281.939 184.183 274 176z"/>
<path style="fill:#fdaae2; stroke:none;" d="M368 176L369 177L368 176z"/>
<path style="fill:#ffe0f5; stroke:none;" d="M367 178L368 179L367 178z"/>
<path style="fill:#fea9e1; stroke:none;" d="M365 180L366 181L365 180z"/>
<path style="fill:#fd9bdc; stroke:none;" d="M363 183L364 184L363 183z"/>
<path style="fill:#fecbed; stroke:none;" d="M360 187L361 188L360 187z"/>
<path style="fill:#fea9e0; stroke:none;" d="M359 188L360 189L359 188z"/>
<path style="fill:#fec1e8; stroke:none;" d="M358 190L359 191L358 190z"/>
<path style="fill:#fc91d6; stroke:none;" d="M357 191L358 192L357 191z"/>
<path style="fill:#fda8df; stroke:none;" d="M356 192L357 193L356 192z"/>
<path style="fill:#febde6; stroke:none;" d="M355.333 193.667L355.667 194.333L355.333 193.667z"/>
<path style="fill:#fd95d7; stroke:none;" d="M354 195L355 196L354 195z"/>
<path style="fill:#fed8f0; stroke:none;" d="M353 197L354 198L353 197z"/>
<path style="fill:#fed5ef; stroke:none;" d="M352 198L353 199L352 198z"/>
<path style="fill:#fed3ee; stroke:none;" d="M351 200L352 201L351 200z"/>
<path style="fill:#febee6; stroke:none;" d="M350 201L351 202L350 201z"/>
<path style="fill:#fdbde5; stroke:none;" d="M349 202L350 203L349 202z"/>
<path style="fill:#ffe9f7; stroke:none;" d="M348.333 203.667L348.667 204.333L348.333 203.667z"/>
<path style="fill:#ffe4f4; stroke:none;" d="M346 207L347 208L346 207z"/>
<path style="fill:#fedff2; stroke:none;" d="M344 209L345 210L344 209z"/>
<path style="fill:#fd9cd6; stroke:none;" d="M343 210L344 211L343 210z"/>
<path style="fill:#fed3ed; stroke:none;" d="M342 212L343 213L342 212z"/>
<path style="fill:#fc92d1; stroke:none;" d="M341 213L342 214L341 213z"/>
<path style="fill:#feb4df; stroke:none;" d="M339 216L340 217L339 216z"/>
<path style="fill:#fff5fb; stroke:none;" d="M337 219L338 220L337 219z"/>
<path style="fill:#fdb1de; stroke:none;" d="M336 220L337 221L336 220z"/>
<path style="fill:#fca5d7; stroke:none;" d="M334 223L335 224L334 223z"/>
<path style="fill:#fed3eb; stroke:none;" d="M331 227L332 228L331 227z"/>
<path style="fill:#fdc7e6; stroke:none;" d="M329 230L330 231L329 230z"/>
<path style="fill:#fda6d6; stroke:none;" d="M328 231L329 232L328 231z"/>
<path style="fill:#fedef0; stroke:none;" d="M327 233L328 234L327 233z"/>
<path style="fill:#ffeaf5; stroke:none;" d="M326 234L327 235L326 234z"/>
<path style="fill:#fca6d5; stroke:none;" d="M325 235L326 236L325 235z"/>
<path style="fill:#fee9f5; stroke:none;" d="M324 237L325 238L324 237z"/>
<path style="fill:#fec7e5; stroke:none;" d="M323 238L324 239L323 238z"/>
<path style="fill:#fedeef; stroke:none;" d="M322.333 239.667L322.667 240.333L322.333 239.667z"/>
<path style="fill:#fdbcdf; stroke:none;" d="M321 241L322 242L321 241z"/>
<path style="fill:#fee9f4; stroke:none;" d="M320 242L321 243L320 242z"/>
<path style="fill:#fed2e9; stroke:none;" d="M318 245L319 246L318 245z"/>
<path style="fill:#fc94cb; stroke:none;" d="M319.333 246.667L319.667 247.333L319.333 246.667z"/>
<path style="fill:#ffe3f2; stroke:none;" d="M320 248L321 249L320 248z"/>
<path style="fill:#fb8ac7; stroke:none;" d="M322.333 250.667L322.667 251.333L322.333 250.667z"/>
<path style="fill:#fffbfd; stroke:none;" d="M325 255L326 256L325 255z"/>
<path style="fill:#fc9fd2; stroke:none;" d="M326 257L327 258L326 257z"/>
<path style="fill:#fc90cc; stroke:none;" d="M328 260L329 261L328 260z"/>
<path style="fill:#fb71bf; stroke:none;" d="M329.333 261.667L329.667 262.333L329.333 261.667z"/>
<path style="fill:#fdc0e3; stroke:none;" d="M330 263L331 264L330 263z"/>
<path style="fill:#fb6abc; stroke:none;" d="M331.333 264.667L331.667 265.333L331.333 264.667z"/>
<path style="fill:#fa05a7; stroke:none;" d="M331 266L329 269L331 269L329 271L329 272L331 274L329 274L331 277L329 277L331 280C328.07 280.586 328.512 282.502 331 283L329 286L331 286L329 288L329 289L331 291L329 291L331 294C328.07 294.586 328.512 296.502 331 297L329 300L331 300L329 303L331 303L329 305L329 306L331 308L329 308L331 311C328.07 311.586 328.512 313.502 331 314L329 317L331 317L329 320L331 320L329 322L329 323L331 325L329 325L331 328C328.07 328.586 328.512 330.502 331 331L329 334L331 334L329 337L331 337L329 339L329 340L331 342L329 342L331 345C328.07 345.586 328.512 347.502 331 348L329 351L331 351L329 354L331 354L329 356L329 357L331 359L329 359L331 362C328.07 362.586 328.512 364.502 331 365L329 368L331 368L329 371L331 371L329 373L329 374L331 376L329 376L331 379C328.07 379.586 328.512 381.502 331 382L329 385L331 385L329 388L331 388L329 390L329 391L331 393L329 393L331 396C328.07 396.586 328.512 398.502 331 399L329 402L331 402L329 405C344.542 409.594 365.777 406 382 406L382 405L382 403L382 402L380 399L383 399L381 396L381 395L381 392L384 391L382 386L382 385L380 382L383 382L381 379L381 378L381 375L384 374L382 369L382 368L380 365L383 365L381 361L384 360L384 356L382 352L382 351L380 348L383 348L381 344L384 343L352.674 296.001L331 266z"/>
<path style="fill:#fdc6e6; stroke:none;" d="M332 266L333 267L332 266z"/>
<path style="fill:#fdb7df; stroke:none;" d="M333 267L334 268L333 267z"/>
<path style="fill:#fc8acc; stroke:none;" d="M334.333 268.667L334.667 269.333L334.333 268.667z"/>
<path style="fill:#25a3e5; stroke:none;" d="M201 270C194.835 280.285 182.113 295.229 184 308L179 314L182 315L170 330C171.666 336.689 169.452 341.891 165 347L165 348L168 352L156 364L151 386C145.902 388.784 142.784 398.504 141 404C155.807 400.465 170.394 397.761 185 393.119C189.738 391.613 198.979 389.628 201.972 385.362C206.286 379.213 203 361.434 203 354L203 270L201 270z"/>
<path style="fill:#fa5137; stroke:none;" d="M285 270L285 275L286 275L285 270z"/>
<path style="fill:#fed9ef; stroke:none;" d="M335 270L336 271L335 270z"/>
<path style="fill:#fc82c9; stroke:none;" d="M336.333 271.667L336.667 272.333L336.333 271.667z"/>
<path style="fill:#feeff8; stroke:none;" d="M337 273L338 274L337 273z"/>
<path style="fill:#ffeff8; stroke:none;" d="M340 277L341 278L340 277z"/>
<path style="fill:#fb5fbe; stroke:none;" d="M346.333 286.667L346.667 287.333L346.333 286.667z"/>
<path style="fill:#fdb4e1; stroke:none;" d="M347 288L348 289L347 288z"/>
<path style="fill:#fee9f6; stroke:none;" d="M349 291L350 292L349 291z"/>
<path style="fill:#fed0ed; stroke:none;" d="M350 292L351 293L350 292z"/>
<path style="fill:#fc79cb; stroke:none;" d="M351.333 293.667L351.667 294.333L351.333 293.667z"/>
<path style="fill:#fed9f0; stroke:none;" d="M352 295L353 296L352 295z"/>
<path style="fill:#fc6bc7; stroke:none;" d="M353.333 296.667L353.667 297.333L353.333 296.667z"/>
<path style="fill:#ffffff; stroke:none;" d="M354 298L355 299L354 298z"/>
<path style="fill:#fd94d7; stroke:none;" d="M355.333 299.667L355.667 300.333L355.333 299.667z"/>
<path style="fill:#ffe0f4; stroke:none;" d="M356 301L357 302L356 301z"/>
<path style="fill:#fffdff; stroke:none;" d="M357 302L358 303L357 302z"/>
<path style="fill:#fd9adb; stroke:none;" d="M361 309L362 310L361 309z"/>
<path style="fill:#fd9fdd; stroke:none;" d="M362 310L363 311L362 310z"/>
<path style="fill:#fc68ca; stroke:none;" d="M365.333 314.667L365.667 315.333L365.333 314.667z"/>
<path style="fill:#fec1ea; stroke:none;" d="M366 316L367 317L366 316z"/>
<path style="fill:#fec2ea; stroke:none;" d="M367 317L368 318L367 317z"/>
<path style="fill:#fc5fc9; stroke:none;" d="M368.333 318.667L368.667 319.333L368.333 318.667z"/>
<path style="fill:#fef6fc; stroke:none;" d="M369 320L370 321L369 320z"/>
<path style="fill:#fd81d5; stroke:none;" d="M370.333 321.667L370.667 322.333L370.333 321.667z"/>
<path style="fill:#ffd4f1; stroke:none;" d="M371 323L372 324L371 323z"/>
<path style="fill:#feade4; stroke:none;" d="M372.333 324.667L372.667 325.333L372.333 324.667z"/>
<path style="fill:#ffeefa; stroke:none;" d="M373 326L374 327L373 326z"/>
<path style="fill:#ffe6f7; stroke:none;" d="M376 330L377 331L376 330z"/>
<path style="fill:#fd5cce; stroke:none;" d="M380.333 336.667L380.667 337.333L380.333 336.667z"/>
<path style="fill:#feb0e7; stroke:none;" d="M381 338L382 339L381 338z"/>
<path style="fill:#fd59ce; stroke:none;" d="M382.333 339.667L382.667 340.333L382.333 339.667z"/>
<path style="fill:#f00d4d; stroke:none;" d="M259 340C249.91 352.262 238.526 363.457 226 372.229C220.117 376.349 207.758 380.149 204.028 386.264C201.147 390.986 203 400.605 203 406L261 406L261 358C261 352.503 262.824 344.206 259 340z"/>
<path style="fill:#fea3e4; stroke:none;" d="M383 341L384 342L383 341z"/>
<path style="fill:#fe7eda; stroke:none;" d="M384.333 342.667L384.667 343.333L384.333 342.667z"/>
<path style="fill:#fd03bc; stroke:none;" d="M381 344L383 348L380 348L382 351L382 352L380 353L380 354L384 356L384 360L381 361L383 365L380 365L382 368L382 369L380 370L380 371L384 374L381 375L381 378L381 379L383 382L380 382L382 385L382 386L380 387L380 388L384 391L381 392L381 395L381 396L383 399L380 399L382 402L382 403L380 405L426 406C420.639 389.177 404.824 371.549 394.405 357.385C390.659 352.292 388.162 344.292 381 344z"/>
<path style="fill:#ffd7f4; stroke:none;" d="M385 344L386 345L385 344z"/>
<path style="fill:#ffc9f0; stroke:none;" d="M386 345L387 346L386 345z"/>
<path style="fill:#fe75d8; stroke:none;" d="M387.333 346.667L387.667 347.333L387.333 346.667z"/>
<path style="fill:#fffbfe; stroke:none;" d="M390 351L391 352L390 351z"/>
<path style="fill:#ffdbf5; stroke:none;" d="M391 352L392 353L391 352z"/>
<path style="fill:#fd67d6; stroke:none;" d="M392 354L394 357L392 354z"/>
<path style="fill:#ff9de6; stroke:none;" d="M395 359L396 360L395 359z"/>
<path style="fill:#fe98e4; stroke:none;" d="M396 360L397 361L396 360z"/>
<path style="fill:#ffc0f0; stroke:none;" d="M400 366L401 367L400 366z"/>
<path style="fill:#fe5dd8; stroke:none;" d="M401.333 367.667L401.667 368.333L401.333 367.667z"/>
<path style="fill:#ffb4ed; stroke:none;" d="M402 369L403 370L402 369z"/>
<path style="fill:#ff85e3; stroke:none;" d="M404.333 371.667L404.667 372.333L404.333 371.667z"/>
<path style="fill:#ffe4f9; stroke:none;" d="M405 373L406 374L405 373z"/>
<path style="fill:#ff79e1; stroke:none;" d="M406.333 374.667L406.667 375.333L406.333 374.667z"/>
<path style="fill:#ffcbf3; stroke:none;" d="M407 376L408 377L407 376z"/>
<path style="fill:#ffffff; stroke:none;" d="M410 380L411 381L410 380z"/>
<path style="fill:#ff9feb; stroke:none;" d="M411.333 381.667L411.667 382.333L411.333 381.667z"/>
<path style="fill:#fe6be1; stroke:none;" d="M413 385L415 388L413 385z"/>
<path style="fill:#f1f8fe; stroke:none;" d="M201.667 386.333L202.333 386.667L201.667 386.333z"/>
<path style="fill:#deeffc; stroke:none;" d="M199 387L200 388L199 387z"/>
<path style="fill:#d9ecfb; stroke:none;" d="M197 388L198 389L197 388z"/>
<path style="fill:#ffa9ee; stroke:none;" d="M415 388L416 389L415 388z"/>
<path style="fill:#d3eafa; stroke:none;" d="M194.667 389.333L195.333 389.667L194.667 389.333z"/>
<path style="fill:#edf6fd; stroke:none;" d="M192 390L193 391L192 390z"/>
<path style="fill:#e3f2fc; stroke:none;" d="M189.667 391.333L190.333 391.667L189.667 391.333z"/>
<path style="fill:#ff9cec; stroke:none;" d="M417 391L418 392L417 391z"/>
<path style="fill:#e9f5fd; stroke:none;" d="M187 392L188 393L187 392z"/>
<path style="fill:#cae7fa; stroke:none;" d="M183.667 393.333L184.333 393.667L183.667 393.333z"/>
<path style="fill:#ddf0fb; stroke:none;" d="M180.667 394.333L181.333 394.667L180.667 394.333z"/>
<path style="fill:#eff8fd; stroke:none;" d="M178.667 395.333L179.333 395.667L178.667 395.333z"/>
<path style="fill:#ffcdf6; stroke:none;" d="M420 395L421 396L420 395z"/>
<path style="fill:#87caf1; stroke:none;" d="M173.667 396.333L174.333 396.667L173.667 396.333z"/>
<path style="fill:#d8eefb; stroke:none;" d="M175.667 396.333L176.333 396.667L175.667 396.333z"/>
<path style="fill:#ff63e2; stroke:none;" d="M421.333 396.667L421.667 397.333L421.333 396.667z"/>
<path style="fill:#f1f9fd; stroke:none;" d="M171.667 397.333L172.333 397.667L171.667 397.333z"/>
<path style="fill:#8ecff2; stroke:none;" d="M166.667 398.333L167.333 398.667L166.667 398.333z"/>
<path style="fill:#e4f3fc; stroke:none;" d="M168.667 398.333L169.333 398.667L168.667 398.333z"/>
<path style="fill:#ffbff4; stroke:none;" d="M422 398L423 399L422 398z"/>
<path style="fill:#e0f2fc; stroke:none;" d="M163.667 399.333L164.333 399.667L163.667 399.333z"/>
<path style="fill:#ff99ed; stroke:none;" d="M423.333 399.667L423.667 400.333L423.333 399.667z"/>
<path style="fill:#d9effa; stroke:none;" d="M160.667 400.333L161.333 400.667L160.667 400.333z"/>
<path style="fill:#bae3f7; stroke:none;" d="M154 401L154 402L159 402L154 401z"/>
<path style="fill:#ffd9f8; stroke:none;" d="M424 401L425 402L424 401z"/>
<path style="fill:#c9e9f8; stroke:none;" d="M150 402L150 403L153 403L150 402z"/>
<path style="fill:#ff86eb; stroke:none;" d="M425.333 402.667L425.667 403.333L425.333 402.667z"/>
<path style="fill:#91d5f1; stroke:none;" d="M142 403L142 404L147 404L142 403z"/>
<path style="fill:#f4fbfe; stroke:none;" d="M147.667 403.333L148.333 403.667L147.667 403.333z"/>
<path style="fill:#bee7f6; stroke:none;" d="M138 404L138 405L141 405L138 404z"/>
<path style="fill:#fb43be; stroke:none;" d="M426 404C419.338 409.047 403.216 406 395 406L314 406L314 407L428 407L426 404z"/>
<path style="fill:#ccecf8; stroke:none;" d="M132 405L132 406L137 406L132 405z"/>
<path style="fill:#7ad3ec; stroke:none;" d="M120 406L120 407L126 407L120 406z"/>
<path style="fill:#f6fcfe; stroke:none;" d="M126 406L126 407L131 407L126 406z"/>
<path style="fill:#f74794; stroke:none;" d="M203 406L203 407L314 407L280 406L203 406z"/>
<path style="fill:#87daec; stroke:none;" d="M106 407L106 408L112 408L106 407z"/>
<path style="fill:#d5f2f9; stroke:none;" d="M112 407L112 408L118 408L112 407z"/>
<path style="fill:#e1f7fa; stroke:none;" d="M80 408L80 409L102 409L80 408z"/>
</svg>
