<?xml version="1.0" standalone="yes"?>
<svg width="400" height="109">
<path style="fill:#000000; stroke:none;" d="M0 0L0 109L400 109L400 0L0 0z"/>
<path style="fill:#00ff20; stroke:none;" d="M361 9C363.856 28.3409 380.478 48.1971 378.812 68C377.361 85.2331 356.826 93.8168 344.326 81.5355C330.773 68.2208 326.694 41.3522 320 24L304 30C310.631 50.3436 317.182 81.2233 334.039 95.5324C353.387 111.955 388.891 103.169 394.482 77C399.85 51.8779 383.374 27.3515 377 4L361 9z"/>
<path style="fill:#3c00ff; stroke:none;" d="M4 101C19.4903 101 37.0653 103.148 52 98.2508C75.9291 90.4037 90.4918 62.3362 85.331 38C80.464 15.0489 62.0996 12 42 12C37.5091 12 27.4085 10.1145 23.7384 13.0278C19.3419 16.5177 18.9253 30.6579 17.7894 36C13.1846 57.6549 8.21494 79.2656 4 101z"/>
<path style="fill:#ffc300; stroke:none;" d="M111 12C111 35.2248 105.95 65.149 118.353 86C132.37 109.565 170.985 105.615 182.366 82C191.95 62.1123 187 33.5365 187 12L171 12C171 30.6034 175.409 56.8503 167.084 74C161.123 86.2812 143.673 89.5918 134.39 78.8951C121.521 64.0654 128 30.3106 128 12L111 12z"/>
<path style="fill:#ff0026; stroke:none;" d="M215 101L232 101C235.371 84.6592 237.958 75.042 250 63L263.247 91L269.39 100.397L287 101C282.522 85.4548 271.399 65.203 262 52L283 34.0895L306 12L285 12.6034L269 25.9614L243 50L251 12L234.738 13.0278L228.8 36L215 101z"/>
<path style="fill:#000000; stroke:none;" d="M25 85C33.7177 85 42.9933 85.394 51 81.3904C65.0354 74.3723 74.4904 51.7815 67 37.0039C63.4057 29.9128 43.444 22.131 36.9884 29.6034C31.7517 35.6649 31.4126 52.2011 29.6505 60C27.8105 68.143 25.3596 76.6469 25 85z"/>
<path style="fill:#171717; stroke:none;" d="M370 58L371 62C367.302 63.2327 343.534 74.8638 345 69L339 73C343.945 75.2637 346.701 80.0476 352 81.8912C368.922 87.7786 373.704 71.3655 376 59L370 58z"/>
<path style="fill:#000000; stroke:none;" d="M372 63C363.999 69.0996 354.782 72.102 345 74C353.194 84.4334 359.532 73.3536 370 75L372 63z"/>
</svg>
